<svg t="1695370599296" class="icon" viewBox="0 0 1024 1024" version="1.1" xmlns="http://www.w3.org/2000/svg" p-id="10085" data-spm-anchor-id="a313x.search_index.0.i0.5a6e3a81PbZoWN" width="200" height="200"><path d="M1005.824 868.437333a883.029333 883.029333 0 0 1-591.018667-258.816A883.029333 883.029333 0 0 1 155.818667 16.725333a75.093333 75.093333 0 0 0-62.634667 21.248L52.736 78.421333c-44.373333 44.373333-62.293333 108.714667-47.445333 169.813334A1043.797333 1043.797333 0 0 0 225.28 678.912l120.32 120.234667a1044.48 1044.48 0 0 0 426.837333 219.050666 179.626667 179.626667 0 0 0 170.24-47.445333l41.728-41.728a74.752 74.752 0 0 0 21.418667-60.586667z" fill="#43C491" p-id="10086"></path><path d="M241.92 420.864L57.258667 73.898667l58.026666-58.026667c20.48-20.48 53.845333-20.48 74.325334 0l191.573333 191.573333c20.48 20.48 20.48 53.845333 0 74.24L241.92 420.949333z m359.509333 359.594667l347.050667 184.490666 58.026667-58.026666a52.736 52.736 0 0 0 0-74.24L814.933333 641.109333a52.736 52.736 0 0 0-74.24 0L601.344 780.458667z" fill="#43C491" p-id="10087"></path></svg>