<svg t="1695611070308" class="icon" viewBox="0 0 1024 1024" version="1.1" xmlns="http://www.w3.org/2000/svg" p-id="5740" width="200" height="200"><path d="M624.64 174.08l71.68 71.68L880.64 61.44l81.92 81.92-184.32 184.32 71.68 71.68c0 30.72-25.6 56.32-56.32 56.32H624.64c-30.72 0-56.32-25.6-56.32-56.32V230.4c0-30.72 25.6-56.32 56.32-56.32zM174.08 624.64c0-30.72 25.6-56.32 56.32-56.32h168.96c30.72 0 56.32 25.6 56.32 56.32V793.6c0 30.72-25.6 56.32-56.32 56.32l-71.68-71.68-184.32 184.32-81.92-81.92 184.32-184.32-71.68-71.68z" p-id="5741"></path></svg>